<?xml version="1.0" standalone="no"?>
<!DOCTYPE svg PUBLIC "-//W3C//DTD SVG 20010904//EN"
 "http://www.w3.org/TR/2001/REC-SVG-20010904/DTD/svg10.dtd">
<svg version="1.0" xmlns="http://www.w3.org/2000/svg"
 width="130.000000pt" height="130.000000pt" viewBox="0 0 130.000000 130.000000"
 preserveAspectRatio="xMidYMid meet">
<metadata>
Created by potrace 1.14, written by Peter Selinger 2001-2017
</metadata>
<g transform="translate(0.000000,130.000000) scale(0.100000,-0.100000)"
fill="#000000" stroke="none">
<path d="M495 1281 c-213 -60 -370 -254 -402 -496 -10 -73 -6 -247 7 -313 15
-77 54 -179 90 -235 67 -106 187 -193 306 -220 76 -18 216 -21 279 -7 28 7 57
13 65 15 8 2 40 14 70 28 225 101 343 378 306 722 -17 159 -71 280 -166 376
-105 105 -217 147 -397 147 -62 0 -120 -6 -158 -17z m275 -180 c105 -31 191
-160 206 -309 18 -170 9 -277 -32 -391 -21 -58 -39 -85 -83 -130 -68 -69 -125
-91 -227 -86 -213 9 -315 172 -309 492 4 189 58 317 168 395 62 45 183 57 277
29z"/>
</g>
</svg>
